# xmcd CD database file
#
# Track frame offsets:
#	150
#	7065
#	17977
#	32104
#	43358
#	57210
#	70509
#	84262
#	96033
#	110042
#	121711
#	135266
#	147063
#	162592
#	173946
#	187438
#	196837
#	210305
#	221035
#	234441
#	242397
#	258107
#	263727
#	281144
#	297169
#	310050
#
# Disc length: 4322 seconds
#
# Revision: 0
# Processed by: cddbd v1.5.1PL2 Copyright (c) Steve Scherf et al.
# Submitted via: CDex 1.51
#
DISCID=7510e01a
DTITLE=Corey Christiansen - Essential Jazz Lines In The Style Of Grant Green
DYEAR=1900
DGENRE=Jazz
TTITLE0=Tuning
TTITLE1=Minor Vamp
TTITLE2=Minor Moving In Fourths
TTITLE3=Dominant Seventh Vamp
TTITLE4=Dominant Seventh Moving In Fourths
TTITLE5=Short ii-V Vamp
TTITLE6=Short ii-V Moving In Fourths
TTITLE7=Long ii-V Vamp
TTITLE8=Long ii-V Moving In Fourths
TTITLE9=Major Vamp
TTITLE10=Major Moving In Fourths
TTITLE11=Minor ii-V Vamp
TTITLE12=Minor ii-V Moving In Fourths
TTITLE13=Short ii-V-I Vamp
TTITLE14=Short ii-V-I Moving In Fourths
TTITLE15=Long ii-V-I Vamp
TTITLE16=Long ii-V-I Moving In Fourths
TTITLE17=Minor ii-V-I Vamp
TTITLE18=Minor ii-V-I Moving In Fourths
TTITLE19=Turnaround Vamp
TTITLE20=Turnaround Moving In Fourths
TTITLE21=Etude
TTITLE22=Etude With Rhythm Section Only
TTITLE23=Progression Similar To Misty
TTITLE24=Bb Blues
TTITLE25=Progression Similar To Solar
EXTD=
EXTT0=
EXTT1=
EXTT2=
EXTT3=
EXTT4=
EXTT5=
EXTT6=
EXTT7=
EXTT8=
EXTT9=
EXTT10=
EXTT11=
EXTT12=
EXTT13=
EXTT14=
EXTT15=
EXTT16=
EXTT17=
EXTT18=
EXTT19=
EXTT20=
EXTT21=
EXTT22=
EXTT23=
EXTT24=
EXTT25=
PLAYORDER=
